# xmcd
#
# Track frame offsets:
#	182
#	13760
#	26237
#	38275
#	50900
#	65335
#	75837
#	89030
#	103887
#	116787
#	144697
#	156285
#	166520
#	178032
#	190685
#	205522
#	217847
#	229767
#	239467
#	253495
#
# Disc length: 3638 seconds
# Revision: 0
# Processed by: cddbd v1.5.2PL0 Copyright (c) Steve Scherf et al.
# Submitted via: dBpowerAMP V12.0
#
DISCID=120e3414
DTITLE=Various Artist - I Just Want to Make Love to You [Disc 2]
DYEAR=1900
DGENRE=
TTITLE0=John Lee Hooker - One Bourbon, One Scotch, One Beer
TTITLE1=Bo Diddley - Roadrunner
TTITLE2=Chuck Berry - You Never Can Tell
TTITLE3=Jimmy Rodgers - That's All Right
TTITLE4=Buddy Guy - My Time After Awile
TTITLE5=Clarence "frogman" - Don't Know Why I Love You (But I Do)
TTITLE6=Fontella Bass - Rescue Me
TTITLE7=Ramsey Lewis Trio - The "in" Crowd
TTITLE8=Sugar Pie Desanto - Soulful Dress
TTITLE9=The Dells - Stay in My Corner
TTITLE10=The Radiants - Voice Your Choice
TTITLE11=Elmore James - Talk to Me Baby
TTITLE12=Irima Thomas - Good to Me
TTITLE13=Jackie Brenston and His Delta Kings - Rocket 88
TTITLE14=Jackie Ross - Selfish One
TTITLE15=Little Walter and His Night Cats - Juke
TTITLE16=Little Milton - Gritts Ain't Groceries
TTITLE17=Willie Dixon - 29 Days
TTITLE18=Sonny Boy Williamson - Help Me
TTITLE19=Muddy Waters - I Just Want to Make Love to You
EXTD=
EXTT0=
EXTT1=
EXTT2=
EXTT3=
EXTT4=
EXTT5=
EXTT6=
EXTT7=
EXTT8=
EXTT9=
EXTT10=
EXTT11=
EXTT12=
EXTT13=
EXTT14=
EXTT15=
EXTT16=
EXTT17=
EXTT18=
EXTT19=
PLAYORDER=
